<svg width="1321" height="427" viewBox="0 0 1321 427" fill="none" xmlns="http://www.w3.org/2000/svg">
<path d="M10 92C113 41 264.2 84.2 293 53C329 14 322 -9.99997 293 31C264 72 180 212.999 223 273.999C237.804 295 284.866 296.627 319 191.999C365 50.9994 251 268.999 326 273.999C378.883 277.525 393 155.999 356 142.999C325.283 132.207 390 163 397 171C409.25 185.001 427 201.999 416 263.999C401 314.999 434.6 142.799 457 145.999C485 149.999 431 263.999 478 263.999C525 263.999 528 183.999 528 145.999C528 107.999 500.708 271.048 550 258C584 249 621 141 631 97.9996C641 54.9996 510.004 388.464 478 413C448 436 479.964 361.95 505 344C539 319.623 672 178.001 707 117C733.975 69.986 692 267.998 739 263.999C786 259.999 800.923 98.0002 803 122C812 225.999 763 399 707 399C651 399 867 157.985 881 138C898 91.0002 783 332.999 911 206.999C917.667 193.333 932.2 160.4 937 138C943 110 875 229.999 926 241.999C977 253.999 1070 132 1038 132C988 138 939.2 209.799 988 236.999C1049 270.999 1116 149 1094 138C1072 127 1054.37 233.005 1081 236.999C1121 242.999 1143 134.001 1175 142.001C1199 148.001 1172.06 230.128 1238 241.999C1288 251.001 1302 198.999 1311 178.001" stroke="black" stroke-width="18" stroke-linecap="round"/>
</svg>
